# Blender v2.66 (sub 1) OBJ File: 'terrain6.blend'
# www.blender.org
mtllib ivy.mtl
o ivy_ivy_branch
v 15.119993 -2.507278 9.715432
v -13.317615 -0.477167 10.385843
v -14.434581 0.868361 -12.155483
v 13.928675 -2.822506 -12.490559
v -14.351742 1.859151 0.081090
v 0.923602 -1.080763 10.319954
v 14.328279 -0.318632 -0.625847
v -0.048689 -0.014246 -12.356400
v 0.901316 4.042754 -0.879483
v -13.991891 1.950712 6.476198
v -14.529387 3.353106 -7.196675
v 7.960723 -1.506710 9.901465
v -5.545782 -0.132238 11.531723
v 14.634223 -0.583926 5.880933
v 13.990300 -0.952612 -7.417409
v -7.208659 0.244602 -12.216091
v 7.000646 -1.005520 -12.450389
v 0.402478 4.041043 -7.489879
v 7.651381 3.683217 -0.561931
v 0.486139 2.621199 6.486540
v -6.715828 3.883909 -0.315731
v 7.312927 2.681981 -7.454317
v 7.574001 2.121241 6.244511
v -6.965469 3.845469 -7.266769
v -6.431985 2.755120 7.097983
vt 0.748909 -0.001799
vt 0.998908 -0.001799
vt 0.998909 0.248201
vt 0.498909 -0.001799
vt 0.748909 0.248201
vt 0.998909 0.498201
vt 0.498909 0.248201
vt 0.498909 0.498201
vt 0.248909 -0.001799
vt 0.248909 0.248201
vt -0.001091 -0.001799
vt -0.001091 0.248201
vt -0.001091 0.498201
vt 0.748909 0.498201
vt 0.748909 0.748201
vt 0.998909 0.748201
vt 0.748909 0.998201
vt 0.498909 0.748201
vt 0.498909 0.998201
vt 0.248909 0.498201
vt -0.001091 0.748201
vt 0.248909 0.748201
vt 0.248909 0.998201
vt 0.998909 0.998201
vt -0.001091 0.998201
vn 0.397504 0.871487 -0.287179
vn 0.236854 0.910642 -0.338511
vn 0.229163 0.810694 -0.538713
vn 0.464064 0.885739 -0.008423
vn 0.294504 0.886380 -0.357128
vn 0.057680 0.782434 -0.620014
vn 0.287637 0.957030 0.036134
vn 0.041993 0.996338 0.074129
vn 0.283700 0.910611 0.300455
vn 0.227393 0.871578 0.434278
vn 0.135868 0.892331 0.430372
vn 0.173650 0.746025 0.642811
vn 0.150945 0.717643 0.679830
vn 0.072359 0.937468 -0.340403
vn -0.068239 0.954833 -0.289132
vn 0.006256 0.827876 -0.560869
vn -0.025086 0.985687 -0.166570
vn -0.128269 0.988311 0.082278
vn -0.165929 0.981903 0.091006
vn 0.082553 0.901303 0.425214
vn 0.018708 0.814478 0.579852
vn -0.060396 0.933988 0.352123
vn -0.118198 0.960051 0.253578
vn 0.073275 0.892178 -0.445631
vn -0.116398 0.834620 0.538377
usemtl ivy_leaves
s 1
f 15/1/1 4/2/2 17/3/3
f 7/4/4 15/1/1 22/5/5
f 22/5/5 17/3/3 8/6/6
f 19/7/7 22/5/5 9/8/8
f 14/9/9 7/4/4 23/10/10
f 1/11/11 14/9/9 12/12/12
f 23/10/10 19/7/7 9/8/8
f 12/12/12 23/10/10 6/13/13
f 18/14/14 8/6/6 24/15/15
f 9/8/8 18/14/14 24/15/15
f 24/15/15 16/16/16 11/17/17
f 21/18/18 24/15/15 5/19/19
f 20/20/20 9/8/8 21/18/18
f 6/13/13 20/20/20 13/21/21
f 25/22/22 21/18/18 5/19/19
f 13/21/21 25/22/22 10/23/23
f 22/5/5 15/1/1 17/3/3
f 19/7/7 7/4/4 22/5/5
f 18/14/14 22/5/5 8/6/6
f 22/5/5 18/14/14 9/8/8
f 7/4/4 19/7/7 23/10/10
f 14/9/9 23/10/10 12/12/12
f 20/20/20 23/10/10 9/8/8
f 23/10/10 20/20/20 6/13/13
f 8/6/6 16/16/16 24/15/15
f 21/18/18 9/8/8 24/15/15
f 16/16/16 3/24/24 11/17/17
f 24/15/15 11/17/17 5/19/19
f 25/22/22 20/20/20 21/18/18
f 20/20/20 25/22/22 13/21/21
f 10/23/23 25/22/22 5/19/19
f 2/25/25 13/21/21 10/23/23
