# Blender v2.66 (sub 1) OBJ File: 'terrain6.blend'
# www.blender.org
mtllib ivy_leaf.mtl
o leaf_ivy.001
v 1.312384 0.134759 -1.345141
v 1.186661 0.505976 1.227217
v -1.332394 0.165498 1.332393
v -1.283449 0.309828 -1.328021
v -0.000000 0.089381 1.332394
v 1.332394 0.236489 0.000000
v 0.000000 0.435980 -1.332394
v -1.292279 0.122895 0.007721
v 0.000000 0.000000 -0.000000
vt 0.249756 -0.000244
vt 0.499756 -0.000244
vt 0.499756 0.249756
vt -0.000244 -0.000244
vt 0.249756 0.249756
vt 0.249756 0.499756
vt -0.000244 0.249756
vt 0.499756 0.499756
vt -0.000244 0.499756
vn -0.096430 0.985821 0.137325
vn 0.215944 0.927989 0.303653
vn 0.094068 0.993333 -0.066636
vn -0.174380 0.982470 -0.065907
vn 0.091852 0.946395 0.309676
vn -0.174311 0.982078 -0.071680
vn 0.057008 0.997912 -0.030367
vn -0.340433 0.909108 -0.240060
usemtl single_leaves
s off
f 7/1/1 4/2/1 8/3/1
f 1/4/2 7/1/2 9/5/2
f 9/5/3 8/3/3 5/6/3
f 6/7/4 9/5/4 5/6/4
f 9/5/5 7/1/5 8/3/5
f 6/7/6 1/4/6 9/5/6
f 8/3/7 3/8/7 5/6/7
f 2/9/8 6/7/8 5/6/8
