# Blender v2.66 (sub 1) OBJ File: 'terrain6.blend'
# www.blender.org
mtllib oak_leaf.mtl
o leaf_oak.001
v 1.186271 0.111150 -1.186271
v 1.186271 0.435144 1.186271
v -1.186271 0.472578 1.186271
v -1.186271 0.435144 -1.186272
v -0.000000 0.160479 1.186271
v 1.186271 0.000000 0.000000
v 0.000000 0.000000 -1.186271
v -1.186271 0.160479 -0.000000
v 0.000000 0.000000 -0.000000
vt 0.759386 0.506555
vt 1.009386 0.506555
vt 1.009386 0.756555
vt 0.509386 0.506555
vt 0.759386 0.756555
vt 0.759386 1.006555
vt 0.509386 0.756555
vt 1.009386 1.006555
vt 0.509386 1.006555
vn 0.336520 0.917407 0.212413
vn -0.093288 0.995639 -0.000000
vn 0.132870 0.982187 -0.132870
vn 0.000000 0.990973 -0.134059
vn 0.134059 0.990973 0.000000
vn -0.000000 0.995639 0.093288
vn 0.246578 0.937229 -0.246578
vn -0.212413 0.917407 -0.336520
usemtl single_leaves
s off
f 7/1/1 4/2/1 8/3/1
f 1/4/2 7/1/2 9/5/2
f 9/5/3 8/3/3 5/6/3
f 6/7/4 9/5/4 5/6/4
f 9/5/5 7/1/5 8/3/5
f 6/7/6 1/4/6 9/5/6
f 8/3/7 3/8/7 5/6/7
f 2/9/8 6/7/8 5/6/8
