# Blender v2.66 (sub 1) OBJ File: 'terrain6.blend'
# www.blender.org
mtllib popular_leaf.mtl
o leaf_poplar.001
v 193.532104 -54.578239 53.594398
v 193.532104 -54.578239 56.636429
v 190.490082 -54.578239 56.636429
v 190.490082 -54.578239 53.594398
v 192.011093 -54.471428 56.636429
v 193.532104 -54.471428 55.115414
v 192.011093 -54.471428 53.594398
v 190.490082 -54.471428 55.115414
v 192.011093 -54.702927 55.115414
vt 0.753724 -0.003075
vt 1.003724 -0.003075
vt 0.753724 0.246925
vt 0.503724 -0.003075
vt 0.503724 0.246925
vt 1.003724 0.246925
vt 0.753724 0.496925
vt 0.503724 0.496925
vt 1.003724 0.496925
vn -0.069258 0.986241 0.150106
vn 0.069880 0.995105 -0.069880
vn 0.148793 0.977610 -0.148792
vn -0.150106 0.986241 0.069258
vn 0.150106 0.986241 -0.069258
vn -0.148793 0.977610 0.148792
vn -0.069880 0.995105 0.069880
vn 0.069258 0.986241 -0.150106
usemtl single_leaves
s off
f 7/1/1 4/2/1 9/3/1
f 1/4/2 7/1/2 6/5/2
f 9/3/3 8/6/3 5/7/3
f 6/5/4 9/3/4 2/8/4
f 4/2/5 8/6/5 9/3/5
f 7/1/6 9/3/6 6/5/6
f 8/6/7 3/9/7 5/7/7
f 9/3/8 5/7/8 2/8/8
